<mxfile host="65bd71144e">
    <diagram id="nDiYiXPjR50FLqOM43zk" name="Page-1">
        <mxGraphModel dx="737" dy="413" grid="1" gridSize="10" guides="1" tooltips="1" connect="1" arrows="1" fold="1" page="1" pageScale="1" pageWidth="827" pageHeight="1169" math="0" shadow="0">
            <root>
                <mxCell id="0"/>
                <mxCell id="1" parent="0"/>
                <mxCell id="5" value="" style="edgeStyle=none;html=1;" edge="1" parent="1" source="2" target="4">
                    <mxGeometry relative="1" as="geometry"/>
                </mxCell>
                <mxCell id="2" value="inicio" style="rounded=1;whiteSpace=wrap;html=1;fillColor=#FF0080;" vertex="1" parent="1">
                    <mxGeometry x="120" y="30" width="120" height="60" as="geometry"/>
                </mxCell>
                <mxCell id="7" value="" style="edgeStyle=none;html=1;" edge="1" parent="1" source="4" target="6">
                    <mxGeometry relative="1" as="geometry"/>
                </mxCell>
                <mxCell id="4" value="x" style="shape=parallelogram;perimeter=parallelogramPerimeter;whiteSpace=wrap;html=1;fixedSize=1;rounded=1;fillColor=#66CC00;" vertex="1" parent="1">
                    <mxGeometry x="120" y="110" width="120" height="60" as="geometry"/>
                </mxCell>
                <mxCell id="9" value="" style="edgeStyle=none;html=1;" edge="1" parent="1" source="6" target="8">
                    <mxGeometry relative="1" as="geometry"/>
                </mxCell>
                <mxCell id="6" value="r=x%2" style="whiteSpace=wrap;html=1;rounded=1;fillColor=#FF8000;" vertex="1" parent="1">
                    <mxGeometry x="120" y="190" width="120" height="60" as="geometry"/>
                </mxCell>
                <mxCell id="11" value="" style="edgeStyle=none;html=1;" edge="1" parent="1" source="8" target="10">
                    <mxGeometry relative="1" as="geometry">
                        <Array as="points">
                            <mxPoint x="80" y="310"/>
                        </Array>
                    </mxGeometry>
                </mxCell>
                <mxCell id="18" value="" style="edgeStyle=none;html=1;" edge="1" parent="1" source="8" target="17">
                    <mxGeometry relative="1" as="geometry">
                        <Array as="points">
                            <mxPoint x="280" y="310"/>
                        </Array>
                    </mxGeometry>
                </mxCell>
                <mxCell id="8" value="r==o" style="rhombus;whiteSpace=wrap;html=1;rounded=1;fillColor=#FF00FF;" vertex="1" parent="1">
                    <mxGeometry x="140" y="270" width="80" height="80" as="geometry"/>
                </mxCell>
                <mxCell id="10" value="rta=&quot;IMPAR&quot;" style="whiteSpace=wrap;html=1;rounded=1;fillColor=#0000FF;" vertex="1" parent="1">
                    <mxGeometry x="20" y="360" width="120" height="60" as="geometry"/>
                </mxCell>
                <mxCell id="22" value="" style="edgeStyle=none;html=1;entryX=0.417;entryY=1;entryDx=0;entryDy=0;entryPerimeter=0;" edge="1" parent="1" source="17" target="10">
                    <mxGeometry relative="1" as="geometry">
                        <mxPoint x="40" y="500" as="targetPoint"/>
                        <Array as="points">
                            <mxPoint x="280" y="500"/>
                            <mxPoint x="70" y="500"/>
                        </Array>
                    </mxGeometry>
                </mxCell>
                <mxCell id="17" value="rta=&quot;IMPAR&quot;" style="whiteSpace=wrap;html=1;rounded=1;fillColor=#FF9999;" vertex="1" parent="1">
                    <mxGeometry x="220" y="360" width="120" height="60" as="geometry"/>
                </mxCell>
                <mxCell id="34" value="" style="edgeStyle=none;html=1;" edge="1" parent="1" source="25" target="33">
                    <mxGeometry relative="1" as="geometry"/>
                </mxCell>
                <mxCell id="25" value="rta" style="shape=document;whiteSpace=wrap;html=1;boundedLbl=1;fillColor=#FF66B3;" vertex="1" parent="1">
                    <mxGeometry x="110" y="540" width="120" height="80" as="geometry"/>
                </mxCell>
                <mxCell id="30" value="" style="endArrow=classic;html=1;entryX=0.5;entryY=0;entryDx=0;entryDy=0;" edge="1" parent="1" target="25">
                    <mxGeometry width="50" height="50" relative="1" as="geometry">
                        <mxPoint x="170" y="500" as="sourcePoint"/>
                        <mxPoint x="360" y="540" as="targetPoint"/>
                        <Array as="points">
                            <mxPoint x="170" y="500"/>
                        </Array>
                    </mxGeometry>
                </mxCell>
                <mxCell id="33" value="FIN" style="whiteSpace=wrap;html=1;fillColor=#43A5F0;" vertex="1" parent="1">
                    <mxGeometry x="110" y="650" width="120" height="60" as="geometry"/>
                </mxCell>
            </root>
        </mxGraphModel>
    </diagram>
</mxfile>